<?xml version="1.0" standalone="no"?>
<!DOCTYPE svg PUBLIC "-//W3C//DTD SVG 20010904//EN"
 "http://www.w3.org/TR/2001/REC-SVG-20010904/DTD/svg10.dtd">
<svg version="1.0" xmlns="http://www.w3.org/2000/svg"
 width="1024.000000pt" height="1024.000000pt" viewBox="0 0 1024.000000 1024.000000"
 preserveAspectRatio="xMidYMid meet">

<g transform="translate(0.000000,1024.000000) scale(0.100000,-0.100000)"
fill="#000000" stroke="none">
<path d="M5084 9099 c-16 -5 -41 -20 -55 -35 l-24 -26 -5 -306 -5 -307 -80 -8
c-99 -9 -245 -50 -303 -84 -28 -15 -49 -37 -58 -59 -9 -20 -19 -113 -26 -240
l-13 -207 -69 -42 c-38 -23 -88 -65 -113 -93 -129 -150 -302 -463 -396 -717
-90 -245 -180 -615 -227 -933 -35 -245 -51 -457 -57 -789 l-6 -322 -56 -11
c-86 -17 -212 -57 -249 -80 -21 -13 -32 -27 -30 -37 4 -23 67 -58 148 -83 62
-20 330 -70 371 -70 19 0 20 5 13 154 -5 111 -4 155 5 160 6 4 11 35 11 74 0
127 48 492 95 722 66 324 130 527 243 763 36 75 67 136 68 134 2 -2 -5 -30
-15 -62 -105 -337 -192 -1075 -173 -1477 4 -103 7 -118 22 -118 9 0 113 8 231
17 309 25 1339 25 1616 0 105 -9 199 -17 209 -17 16 0 17 23 11 343 -5 284
-10 377 -32 547 -26 210 -86 527 -129 683 -14 48 -23 87 -20 87 8 0 93 -179
127 -270 131 -351 212 -703 251 -1090 30 -310 38 -440 31 -545 -9 -122 -22
-113 130 -90 152 22 277 54 347 89 77 38 82 60 23 93 -40 22 -186 66 -256 77
l-36 6 -6 308 c-7 400 -40 743 -98 1042 -119 607 -309 1066 -579 1403 -40 50
-69 75 -121 102 -63 33 -69 39 -69 68 0 129 -23 403 -36 428 -29 57 -165 111
-334 133 l-95 12 -5 295 c-4 260 -7 298 -23 322 -33 50 -94 72 -153 56z m-516
-1351 c-7 -93 -49 -223 -150 -463 -157 -371 -252 -633 -313 -860 -15 -55 -47
-165 -72 -245 -63 -204 -98 -357 -132 -570 -40 -248 -61 -436 -61 -547 l0 -91
-47 -10 c-26 -6 -50 -8 -53 -5 -13 13 -3 587 14 753 72 722 233 1292 480 1700
88 146 300 410 328 410 7 0 9 -24 6 -72z m1188 0 c235 -248 422 -594 552
-1023 86 -284 153 -653 188 -1035 16 -184 26 -722 12 -735 -3 -4 -26 -3 -50 2
l-43 9 -12 179 c-24 389 -105 807 -213 1104 -16 46 -46 141 -65 210 -65 237
-121 391 -255 711 -100 238 -124 300 -162 415 -30 94 -49 235 -31 235 6 0 41
-33 79 -72z"/>
<path d="M4225 7629 c-316 -279 -549 -689 -705 -1241 -47 -166 -112 -470 -134
-623 -38 -270 -76 -694 -76 -852 l0 -82 48 29 c26 16 92 43 147 60 l100 31 2
225 c7 829 163 1604 425 2116 58 114 168 281 234 356 26 28 45 52 43 52 -2 0
-40 -32 -84 -71z"/>
<path d="M5999 7630 c266 -319 487 -922 580 -1580 42 -296 53 -436 58 -766 l5
-332 92 -27 c50 -15 117 -40 149 -56 l57 -29 0 82 c-1 304 -76 911 -155 1253
-101 434 -251 810 -432 1080 -120 179 -198 264 -392 429 -14 12 4 -13 38 -54z"/>
<path d="M4485 5003 c-169 -10 -363 -25 -379 -30 -17 -5 -18 -12 -12 -87 7
-85 41 -255 54 -267 9 -8 324 -27 599 -36 l203 -6 0 -239 0 -238 175 0 175 0
0 238 0 239 228 6 c256 7 564 26 574 36 12 12 50 221 51 288 l2 68 -135 11
c-74 7 -232 15 -350 19 -192 7 -214 6 -202 -7 10 -13 9 -16 -10 -21 -12 -4
-19 -9 -15 -13 6 -7 -22 -25 -100 -62 -28 -14 -42 -28 -45 -43 -4 -31 -32 -37
-197 -38 l-139 -2 -7 29 c-4 20 -18 36 -41 48 -18 10 -34 22 -34 26 0 5 -6 8
-14 8 -22 0 -89 67 -74 73 13 6 -218 6 -307 0z"/>
<path d="M3999 3696 c-98 -38 -187 -134 -209 -227 -18 -73 -8 -187 19 -240 68
-132 219 -208 362 -181 59 11 149 50 182 79 15 14 17 35 17 155 l0 138 -136 0
-135 0 3 -47 3 -48 83 -3 83 -3 -3 -61 c-4 -74 -23 -92 -111 -109 -107 -19
-201 29 -253 131 -27 54 -23 148 10 203 77 132 219 165 348 80 21 -14 40 -24
41 -22 2 2 16 20 30 40 l27 36 -32 25 c-68 52 -99 62 -198 65 -64 2 -107 -2
-131 -11z"/>
<path d="M7233 3692 c-78 -28 -136 -81 -175 -160 -30 -61 -33 -74 -33 -162 0
-108 15 -148 87 -226 111 -121 308 -133 459 -28 l39 27 0 138 0 139 -136 0
-135 0 3 -47 3 -48 78 -3 78 -3 -3 -66 c-3 -65 -3 -66 -41 -86 -44 -22 -133
-26 -189 -8 -57 19 -113 87 -129 156 -24 108 14 203 104 263 35 23 51 27 112
27 64 0 78 -4 124 -32 29 -18 54 -33 55 -33 2 0 16 19 31 42 l27 41 -23 19
c-60 47 -102 62 -194 65 -69 3 -102 -1 -142 -15z"/>
<path d="M3480 3381 l0 -321 55 0 55 0 -2 318 -3 317 -52 3 -53 3 0 -320z"/>
<path d="M5254 3686 c-3 -8 -4 -29 -2 -48 l3 -33 103 -3 102 -3 0 -269 0 -270
55 0 55 0 0 270 0 270 106 0 105 0 -3 48 -3 47 -258 3 c-215 2 -258 0 -263
-12z"/>
<path d="M6333 3692 l-43 -3 0 -315 0 -315 49 3 50 3 5 219 c4 121 8 221 10
223 2 2 77 -98 167 -222 l163 -225 48 0 48 0 0 315 0 315 -50 0 -50 0 0 -217
c0 -189 -2 -215 -14 -203 -8 8 -83 105 -166 215 -83 110 -157 202 -163 205 -7
3 -31 4 -54 2z"/>
<path d="M2890 3375 l0 -315 215 0 215 0 0 50 0 50 -160 0 -160 0 0 265 0 265
-55 0 -55 0 0 -315z"/>
<path d="M4563 3375 l-1 -315 54 0 54 0 0 140 0 140 155 0 155 0 0 -141 0
-140 53 3 52 3 4 60 c2 33 0 174 -4 313 l-7 252 -49 0 -49 0 0 -125 0 -125
-155 0 -155 0 0 125 0 125 -52 0 -53 0 -2 -315z"/>
<path d="M5960 3375 l0 -315 50 0 50 0 0 315 0 315 -50 0 -50 0 0 -315z"/>
<path d="M4950 2270 l0 -370 -537 -2 -538 -3 -3 -188 -2 -188 392 4 c290 2
435 8 553 21 190 21 542 17 720 -7 78 -11 217 -17 475 -19 l365 -3 0 190 0
190 -537 3 -538 2 0 370 0 370 -175 0 -175 0 0 -370z"/>
</g>
</svg>
